# xmcd
#
# Track frame offsets:
#       187
#       17645
#       29655
#       44660
#       59280
#       70900
#       91147
#       107130
#       122852
#       134000
#       148580
#       164207
#       180985
#       195460
#       205820
#       218442
#       230817
#       246572
#       257892
#
# Disc length: 3585 seconds
#
# Revision: 1
# Processed by: cddbd v1.5.2PL0 Copyright (c) Steve Scherf et al.
# Submitted via: FreeDbEdit v0.1
#
DISCID=280dff13
DTITLE=Various Artist - A Country Christmas, Volume 2 (Reader's Digest)
DYEAR=1900
DGENRE=Christmas
TTITLE0=Ronnie Milsap - O Holy Night
TTITLE1=Eddy Arnold - O Little Town of Bethlehem
TTITLE2=John Loudermilk - Mary's Little Boy Child
TTITLE3=The Judds - Silent Night
TTITLE4=George Hamilton IV - Natividad
TTITLE5=Gary Morris - Away in the Manger/The First Noel
TTITLE6=Sonny James - The Little Drummer Boy
TTITLE7=The Judds - What Child Is This?
TTITLE8=The Statler Brothers - The Lord's Prayer
TTITLE9=Glen Campbell - Have Yourself a Merry Little Christmas
TTITLE10=Ronnie Milsap - Only One Night of the Year
TTITLE11=K. T. Oslin - Blue Christmas
TTITLE12=Barbara Mandrell - It Must Have Been the Mistletoe
TTITLE13=Eddy Arnold - C-H-R-I-S-T-M-A-S
TTITLE14=Jim Reeves - An Old Christmas Card
TTITLE15=Merle Haggard - If We Make It Through December
TTITLE16=The Statler Brothers - Old-Fashioned Christmas
TTITLE17=Willie Nelson - Pretty Paper
TTITLE18=Eddy Arnold - I Heard the Bells on Christmas Day
EXTD=Readers Digest Collection [CD2 of 3)
EXTT0=
EXTT1=
EXTT2=
EXTT3=
EXTT4=
EXTT5=
EXTT6=
EXTT7=
EXTT8=
EXTT9=
EXTT10=
EXTT11=
EXTT12=
EXTT13=
EXTT14=
EXTT15=
EXTT16=
EXTT17=
EXTT18=
PLAYORDER=
